<svg xmlns="http://www.w3.org/2000/svg" viewBox="0 0 320 72" fill="none" role="img" aria-label="Meridyen Assistance">
  <defs>
    <linearGradient id="mwB" x1="8" y1="6" x2="56" y2="58" gradientUnits="userSpaceOnUse">
      <stop stop-color="#2563EB"/>
      <stop offset="0.55" stop-color="#1D4ED8"/>
      <stop offset="1" stop-color="#1E3A8A"/>
    </linearGradient>
    <linearGradient id="mwR" x1="12" y1="50" x2="54" y2="10" gradientUnits="userSpaceOnUse">
      <stop stop-color="#EF4444"/>
      <stop offset="1" stop-color="#B91C1C"/>
    </linearGradient>
  </defs>
  <g transform="translate(2,4)">
    <circle cx="32" cy="32" r="24" stroke="url(#mwB)" stroke-width="3.2" opacity="0.95"/>
    <path d="M12 28c8-10 32-10 40 0" stroke="url(#mwB)" stroke-width="3" stroke-linecap="round"/>
    <path d="M10 36c10 8 34 8 44-2" stroke="url(#mwR)" stroke-width="3.2" stroke-linecap="round"/>
    <path d="M22 12c6 14 6 26 0 40" stroke="url(#mwB)" stroke-width="2.6" stroke-linecap="round" opacity="0.9"/>
    <path d="M42 12c-4 12-4 28 2 40" stroke="url(#mwR)" stroke-width="2.8" stroke-linecap="round"/>
    <path d="M18 20c12-4 28 2 30 16" stroke="url(#mwB)" stroke-width="2.4" stroke-linecap="round" opacity="0.85"/>
  </g>
  <text x="78" y="38" fill="#0F2744" font-family="Inter, system-ui, -apple-system, sans-serif" font-size="28" font-weight="800" letter-spacing="0.06em">MER0DYEN</text>
  <line x1="78" y1="48" x2="300" y2="48" stroke="#DC2626" stroke-width="2"/>
  <text x="118" y="64" fill="#DC2626" font-family="Inter, system-ui, -apple-system, sans-serif" font-size="11" font-weight="700" letter-spacing="0.28em">AS0STANCE</text>
</svg>
